<svg xmlns="http://www.w3.org/2000/svg" id="Capa_1" height="512" viewBox="0 0 512 512" width="512"><g><g><g clip-rule="evenodd" fill-rule="evenodd"><path d="m213.015 245.673c-38.079 15.117-59.697 100.733 0 117.282 12.624-3.499 21.611-10.087 27.576-18.444 20.56-28.804 5.093-85.869-27.576-98.838z" fill="#aae79a"></path><path d="m244.283 281.766c8.052 20.714 8.619 45.497-3.692 62.746 49.652 14.255 71.601-56.032 51.119-83.376-15.214-2.646-34.314 6.416-47.427 20.63z" fill="#6ad34d"></path><path d="m133.388 174.917c12.038 3.563 20.921 14.475 21.446 27.539 19.052 5.638 38.527-8.595 38.527-28.769 0-16.568-13.432-30-30.001-30-17.056.001-30.681 14.213-29.972 31.23z" fill="#faef94"></path><path d="m133.388 174.917c12.038 3.563 20.921 14.475 21.446 27.539 7.866 2.328 15.803 1.266 22.412-2.2-1.412-21.855-16.204-40.071-36.266-46.542-5.004 5.604-7.93 13.084-7.592 21.203z" fill="#f6e23e"></path><path d="m163.361 143.688c16.568 0 30.001 13.432 30.001 30 0 20.174-19.475 34.407-38.525 28.769.017.409.025.819.025 1.231 0 13.029-8.307 24.116-19.91 28.259 4.614 5.276 7.41 12.182 7.41 19.741 0 8.975-3.943 17.029-10.189 22.525 8.239 5.348 13.689 14.629 13.689 25.182 0 16.568-13.432 30-30 30s-30-13.432-30-30c0-8.975 3.942-17.03 10.188-22.528-8.237-5.346-13.688-14.626-13.688-25.18 0-13.029 8.305-24.118 19.911-28.261-4.614-5.274-7.411-12.179-7.411-19.739 0-16.568 13.432-30 30-30 2.963 0 5.825.43 8.527 1.229-.71-17.016 12.915-31.228 29.972-31.228zm189.139 112.312c0-86.985-70.515-157.5-157.5-157.5s-157.5 70.515-157.5 157.5 70.515 157.5 157.5 157.5 157.5-70.515 157.5-157.5zm-139.485 106.955c12.624-3.499 21.611-10.087 27.576-18.444 49.652 14.255 71.601-56.032 51.119-83.376-15.214-2.645-34.314 6.418-47.426 20.631-6.496-16.709-17.862-30.77-31.269-36.092-38.08 15.116-59.698 100.732 0 117.281z" fill="#f05575"></path><path d="m37.5 256c0-86.985 70.515-157.5 157.5-157.5s157.5 70.515 157.5 157.5-70.515 157.5-157.5 157.5-157.5-70.515-157.5-157.5zm157.5 209c15.83 0 30.694-9.669 43.584-26.603 82.532-19.649 143.916-93.85 143.916-182.397s-61.384-162.748-143.916-182.397c-12.89-16.934-27.754-26.603-43.584-26.603s-30.694 9.669-43.583 26.603c-82.533 19.649-143.917 93.85-143.917 182.397s61.384 162.748 143.916 182.397c12.89 16.934 27.754 26.603 43.584 26.603z" fill="#fff"></path><path d="m392.288 144.694c0 32.694 17.403 52.079 41.106 57.661v226.145c0 8.25 6.75 15 15 15s15-6.751 15-15v-226.145c23.702-5.582 41.105-24.968 41.106-57.661 0-39.281-21.588-91.722-56.106-91.722-34.517 0-56.106 52.441-56.106 91.722z" fill="#fff"></path><path d="m30 256c0-75.929 51.372-149.688 118.051-181.557-80.829 20.842-140.551 94.218-140.551 181.557s59.722 160.715 140.551 181.557c-66.679-31.869-118.051-105.628-118.051-181.557z" fill="#b6e6fa"></path><path d="m37.5 256c0 91.561 77.635 163.524 168.75 157.096-81.733-5.77-146.25-73.894-146.25-157.096s64.517-151.326 146.25-157.096c-91.115-6.428-168.75 65.535-168.75 157.096z" fill="#e21643"></path><path d="m392.288 144.694c0 28.673 13.386 47.108 32.667 54.975-20.993-38.065-8.814-128.716 34.84-144.701-45.008-16.063-67.507 56.695-67.507 89.726zm41.106 261.307v22.5c0 8.25 6.75 15 15 15s15-6.751 15-15v-22.5c0 8.249-6.75 15-15 15-8.25-.001-15-6.75-15-15z" fill="#b6e6fa"></path><circle cx="115.861" cy="299.396" fill="#faef94" r="30"></circle><path d="m127.111 327.213c-10.994-4.451-18.751-15.227-18.751-27.817 0-12.602 7.764-23.367 18.749-27.816-19.479-7.887-41.248 6.387-41.248 27.816-.001 21.43 21.77 35.703 41.25 27.817z" fill="#f6e23e"></path><path d="m115.861 269.396c6.015 0 11.616 1.77 16.311 4.819 6.247-5.498 10.189-13.551 10.189-22.526 0-16.546-13.41-30-30-30-16.471 0-30 13.334-30 30 0 10.554 5.451 19.834 13.688 25.18 5.284-4.652 12.219-7.473 19.812-7.473z" fill="#faef94"></path><path d="m132.172 274.215c5.701-5.017 9.482-12.162 10.1-20.195-7.76-4.528-16.783-7.124-26.41-7.124-12.386 0-23.772 4.297-32.753 11.477 1.758 7.723 6.496 14.313 12.94 18.495 10.029-8.828 24.931-9.922 36.123-2.653z" fill="#f6e23e"></path><path d="m112.361 221.688c9.009 0 17.091 3.971 22.589 10.26 11.605-4.144 19.911-15.231 19.911-28.259 0-16.565-13.428-30-30.001-30-16.568 0-30 13.432-30 30 0 7.559 2.797 14.465 7.411 19.739 3.153-1.127 6.55-1.74 10.09-1.74z" fill="#faef94"></path><path d="m134.95 231.948c7.348-2.624 13.372-8.032 16.804-14.953-9.622-10.915-23.704-17.806-39.393-17.806-6.122 0-11.998 1.053-17.462 2.981-.387 7.805 2.222 15.37 7.373 21.258 11.563-4.13 24.557-.768 32.678 8.52z" fill="#f6e23e"></path><path d="m213.015 245.673c-38.079 15.117-59.697 100.733 0 117.282 4.139-1.147 7.888-2.627 11.267-4.392-40.371-21.066-28.07-82.847.092-106.139-3.497-2.84-7.295-5.137-11.359-6.751z" fill="#6ad34d"></path></g><g><path d="m315.653 214.19h-15v-15h15zm-15.001-30h-15v-15h15z" fill="#fff"></path></g></g><g><path d="m448.394 45.472c-40.955.001-63.605 58.669-63.605 99.222 0 31.483 15.242 54.726 41.105 63.327v220.479c0 12.406 10.093 22.5 22.5 22.5s22.5-10.093 22.5-22.5v-22.5h-15v22.5c0 4.135-3.365 7.5-7.5 7.5-4.136 0-7.5-3.364-7.5-7.5v-232.084l-5.781-1.361c-22.449-5.287-35.325-23.643-35.325-50.361 0-34.34 18.935-84.221 48.605-84.222 29.67 0 48.605 49.882 48.606 84.222-.001 26.718-12.876 45.074-35.325 50.361l-5.781 1.361v164.584h15v-152.98c25.863-8.601 41.105-31.843 41.106-63.327.001-40.552-22.65-99.221-63.605-99.221z"></path><path d="m455.894 376h15v15h-15z"></path><path d="m195 91c-41.152 0-80.568 15.238-110.988 42.907l10.093 11.097c27.652-25.153 63.484-39.004 100.895-39.004 82.71 0 150 67.29 150 150s-67.29 150-150 150-150-67.29-150-150c0-37.411 13.852-73.243 39.003-100.896l-11.097-10.093c-27.668 30.421-42.906 69.837-42.906 110.989 0 90.981 74.019 165 165 165s165-74.019 165-165-74.019-165-165-165z"></path><path d="m242.898 66.94c-14.341-17.964-30.859-27.44-47.898-27.44-17.038 0-33.556 9.476-47.898 27.44-40.915 10.346-77.923 34.185-104.449 67.339-27.904 34.875-42.653 76.966-42.653 121.721s14.749 86.846 42.652 121.721c26.526 33.154 63.534 56.993 104.449 67.339 14.342 17.964 30.86 27.44 47.898 27.44 17.039 0 33.557-9.476 47.898-27.44 40.915-10.346 77.923-34.185 104.449-67.339 27.905-34.875 42.654-76.966 42.654-121.721s-14.749-86.846-42.652-121.721c-26.527-33.154-63.535-56.993-104.45-67.339zm92.737 301.41c-25.004 31.252-60.088 53.537-98.789 62.751l-2.608.621-1.624 2.133c-8.21 10.787-21.4 23.646-37.615 23.646-16.214 0-29.405-12.859-37.616-23.646l-1.623-2.133-2.608-.621c-38.7-9.214-73.784-31.499-98.789-62.751-25.751-32.187-39.363-71.037-39.363-112.35s13.612-80.163 39.365-112.35c25.004-31.252 60.088-53.537 98.789-62.751l2.608-.621 1.623-2.133c8.21-10.786 21.401-23.645 37.615-23.645 16.215 0 29.405 12.859 37.615 23.646l1.624 2.133 2.608.621c38.7 9.214 73.784 31.499 98.789 62.751 25.752 32.186 39.364 71.037 39.364 112.349s-13.612 80.163-39.365 112.35z"></path><path d="m74.86 251.688c0 9.835 3.815 19.072 10.467 25.978-4.379 6.136-6.967 13.634-6.967 21.73 0 20.678 16.823 37.5 37.5 37.5s37.5-16.822 37.5-37.5c0-10.066-3.994-19.212-10.472-25.955 4.487-6.299 6.972-13.887 6.972-21.753 0-6.082-1.464-11.824-4.045-16.909 8.116-5.486 13.823-13.99 15.789-23.632.606.03 1.212.065 1.816.065 7.963 0 15.769-2.567 22.396-7.517 9.561-7.141 15.043-18.079 15.043-30.008 0-20.678-16.823-37.5-37.5-37.5-10.311 0-19.922 4.099-27.063 11.543-5.014 5.227-8.321 11.603-9.701 18.501-.576-.026-1.154-.044-1.737-.044-20.678 0-37.5 16.823-37.5 37.5 0 5.925 1.409 11.711 4.042 16.917-9.971 6.748-16.54 18.163-16.54 31.084zm41.001 70.208c-12.407 0-22.5-10.093-22.5-22.5s10.094-22.5 22.5-22.5 22.5 10.094 22.5 22.5-10.093 22.5-22.5 22.5zm31.262-163.781c4.285-4.467 10.052-6.927 16.238-6.927 12.407 0 22.5 10.093 22.5 22.5 0 7.151-3.288 13.708-9.02 17.99-4.483 3.348-9.857 4.875-15.248 4.442-2.377-11.551-10.082-21.179-20.423-26.194.734-4.411 2.773-8.496 5.953-11.811zm-44.763 45.573c0-12.407 10.094-22.5 22.5-22.5s22.5 10.094 22.5 22.5c0 7.983-4.257 15.265-10.924 19.278-6.519-5.474-14.918-8.779-24.077-8.779-2.399 0-4.742.236-7.017.668-1.933-3.377-2.982-7.219-2.982-11.167zm10 25.5c12.407 0 22.501 10.093 22.501 22.5 0 4.786-1.532 9.402-4.298 13.214-4.517-1.933-9.487-3.006-14.703-3.006-7.168 0-13.871 2.025-19.573 5.528-4.082-4.161-6.428-9.765-6.428-15.736.001-12.407 10.095-22.5 22.501-22.5z"></path><path d="m168.523 316.096c1.468 27.294 16.955 47.008 42.488 54.086l2.003.555 2.003-.555c11.734-3.253 21.339-9.18 28.444-17.28 3.353.652 6.656.982 9.888.982 15.916 0 30.134-7.817 40.32-22.586 15.851-22.983 17.664-56.475 4.043-74.66l-1.785-2.383-2.934-.51c-14.258-2.476-31.838 3.572-46.214 15.381-7.562-14.179-18.508-25.466-30.998-30.424l-2.768-1.099-2.768 1.099c-24.771 9.835-43.489 44.554-41.722 77.394zm118.859-47.894c7.747 13.682 5.243 38.192-6.06 54.581-5.553 8.053-14.819 16.561-28.997 16.098 2.963-6.789 4.732-14.43 5.181-22.785.588-10.936-1.105-22.075-4.527-32.439 10.522-9.927 23.802-15.914 34.403-15.455zm-44.854 47.088c-.768 14.274-6.564 32.567-29.513 39.843-22.949-7.275-28.746-25.569-29.513-39.843-1.328-24.688 12.216-52.338 29.513-61.375 17.297 9.037 30.841 36.687 29.513 61.375z"></path><path d="m242.73 214.912h15v14.999h-15z" transform="matrix(.86 -.51 .51 .86 -78.463 158.828)"></path><path d="m240.323 181.458h15v15h-15z" transform="matrix(.86 -.51 .51 .86 -61.726 152.893)"></path><path d="m214.522 196.766h15v15h-15z" transform="matrix(.86 -.51 .51 .86 -73.152 141.888)"></path></g></g></svg>